<?xml version="1.0" encoding="UTF-8" standalone="no"?>
<svg
   xmlns:dc="http://purl.org/dc/elements/1.1/"
   xmlns:cc="http://creativecommons.org/ns#"
   xmlns:rdf="http://www.w3.org/1999/02/22-rdf-syntax-ns#"
   xmlns:svg="http://www.w3.org/2000/svg"
   xmlns="http://www.w3.org/2000/svg"
   id="svg8"
   version="1.1"
   viewBox="0 0 27.061357 27.060894"
   height="27.060894mm"
   width="27.061357mm">
  <defs
     id="defs2" />
  <metadata
     id="metadata5">
    <rdf:RDF>
      <cc:Work
         rdf:about="">
        <dc:format>image/svg+xml</dc:format>
        <dc:type
           rdf:resource="http://purl.org/dc/dcmitype/StillImage" />
        <dc:title></dc:title>
      </cc:Work>
    </rdf:RDF>
  </metadata>
  <g
     transform="translate(-59.868218,-111.64859)"
     id="layer1">
    <path
       transform="scale(0.26458333)"
       id="path828"
       d="m 291.67773,448.41016 c -1.01938,-0.58893 -2.01124,-1.22361 -3.10546,-1.68555 -1.71399,-0.72358 -3.51444,-1.2852 -5.38086,-1.66602 -1.86643,-0.38082 -3.79849,-0.58007 -5.7793,-0.58007 -1.98081,0 -3.91502,0.19925 -5.78125,0.58007 -1.86623,0.38082 -3.66527,0.94244 -5.37891,1.66602 -1.71363,0.72358 -3.34219,1.6104 -4.86523,2.63867 -1.52304,1.02827 -2.93993,2.19924 -4.23438,3.49414 -1.29444,1.29491 -2.4663,2.71285 -3.49414,4.23633 -1.02784,1.52348 -1.91153,3.15125 -2.63476,4.86523 -0.72323,1.71399 -1.2854,3.51443 -1.66602,5.38086 -0.38062,1.86643 -0.58008,3.79849 -0.58008,5.7793 0,1.98081 0.19946,3.91503 0.58008,5.78125 0.38062,1.86623 0.94279,3.66527 1.66602,5.37891 0.72323,1.71363 1.60692,3.34219 2.63476,4.86523 1.02784,1.52304 2.1997,2.93993 3.49414,4.23438 1.29445,1.29444 2.71134,2.4663 4.23438,3.49414 1.52304,1.02784 3.1516,1.91153 4.86523,2.63476 1.71364,0.72323 3.51268,1.2854 5.37891,1.66602 1.86623,0.38062 3.80044,0.58008 5.78125,0.58008 1.98081,0 3.91287,-0.19946 5.7793,-0.58008 1.86642,-0.38062 3.66687,-0.94279 5.38086,-1.66602 1.71398,-0.72323 3.34175,-1.60692 4.86523,-2.63476 1.52348,-1.02784 2.94142,-2.1997 4.23633,-3.49414 1.2949,-1.29445 2.46782,-2.71134 3.49609,-4.23438 1.02828,-1.52304 1.91314,-3.1516 2.63672,-4.86523 0.72358,-1.71364 1.2852,-3.51268 1.66602,-5.37891 0.38082,-1.86622 0.58007,-3.80044 0.58007,-5.78125 0,-6.6e-4 0,-0.001 0,-0.002 h -28.63867 z"
       style="opacity:1;fill:#ffffff;fill-opacity:1;fill-rule:nonzero;stroke:none;stroke-width:0.49999997;stroke-linecap:round;stroke-linejoin:round;stroke-miterlimit:4;stroke-dasharray:none;stroke-dashoffset:0;stroke-opacity:1;paint-order:markers stroke fill" />
    <path
       transform="scale(0.26458333)"
       id="path815"
       d="m 278.16016,421.98438 a 51.138969,51.138969 0 0 0 -36.90821,14.97265 51.138969,51.138969 0 0 0 -8.12695,61.73047 51.138969,51.138969 0 0 0 57.52344,23.82617 51.138969,51.138969 0 0 0 37.90429,-49.39648 h -17.50195 c 0,6.6e-4 0,0.001 0,0.002 0,2.31858 -0.23668,4.58369 -0.68555,6.77148 -0.44886,2.1878 -1.1106,4.29898 -1.96289,6.31055 -0.85228,2.01158 -1.8952,3.92298 -3.10546,5.71289 -1.21027,1.78991 -2.58657,3.45766 -4.10938,4.98047 -1.52281,1.52281 -3.19056,2.90106 -4.98047,4.11133 -1.78991,1.21026 -3.70327,2.25318 -5.71484,3.10547 -2.01158,0.85228 -4.12275,1.51403 -6.31055,1.96289 -2.1878,0.44886 -4.45095,0.68555 -6.76953,0.68555 -2.31859,0 -4.58369,-0.23669 -6.77149,-0.68555 -2.18779,-0.44886 -4.29897,-1.11061 -6.31054,-1.96289 -2.01158,-0.85229 -3.92298,-1.89521 -5.71289,-3.10547 -1.78991,-1.21027 -3.45766,-2.58852 -4.98047,-4.11133 -1.52281,-1.52281 -2.90106,-3.19056 -4.11133,-4.98047 -1.21026,-1.78991 -2.25318,-3.70131 -3.10547,-5.71289 -0.85228,-2.01157 -1.51403,-4.12275 -1.96289,-6.31055 -0.44886,-2.18779 -0.68555,-4.4529 -0.68555,-6.77148 0,-2.31858 0.23669,-4.58173 0.68555,-6.76953 0.44886,-2.1878 1.11061,-4.29897 1.96289,-6.31055 0.85229,-2.01157 1.89521,-3.92493 3.10547,-5.71484 1.21027,-1.78991 2.58852,-3.45766 4.11133,-4.98047 1.52281,-1.52281 3.19056,-2.89911 4.98047,-4.10937 1.78991,-1.21027 3.70131,-2.25319 5.71289,-3.10547 2.01157,-0.85229 4.12275,-1.51403 6.31054,-1.96289 2.1878,-0.44887 4.4529,-0.68555 6.77149,-0.68555 2.31858,0 4.58173,0.23668 6.76953,0.68555 2.1878,0.44886 4.29897,1.1106 6.31055,1.96289 1.28959,0.54638 2.46222,1.29336 3.66406,1.99023 l 8.82617,-15.28906 a 51.138969,51.138969 0 0 0 -24.82226,-6.8457 z"
       style="opacity:1;fill:#ffffff;fill-opacity:1;fill-rule:nonzero;stroke:none;stroke-width:0.49999997;stroke-linecap:round;stroke-linejoin:round;stroke-miterlimit:4;stroke-dasharray:none;stroke-dashoffset:0;stroke-opacity:1;paint-order:markers stroke fill" />
  </g>
</svg>
