<?xml version="1.0" encoding="UTF-8" standalone="no"?>
<svg
   xmlns:dc="http://purl.org/dc/elements/1.1/"
   xmlns:cc="http://creativecommons.org/ns#"
   xmlns:rdf="http://www.w3.org/1999/02/22-rdf-syntax-ns#"
   xmlns:svg="http://www.w3.org/2000/svg"
   xmlns="http://www.w3.org/2000/svg"
   id="svg987"
   version="1.1"
   viewBox="0 0 8.4666661 8.466667"
   height="8.4666672mm"
   width="8.4666662mm">
  <defs
     id="defs981" />
  <metadata
     id="metadata984">
    <rdf:RDF>
      <cc:Work
         rdf:about="">
        <dc:format>image/svg+xml</dc:format>
        <dc:type
           rdf:resource="http://purl.org/dc/dcmitype/StillImage" />
        <dc:title></dc:title>
      </cc:Work>
    </rdf:RDF>
  </metadata>
  <g
     transform="translate(-68.579204,-80.103198)"
     id="layer1">
    <path
       style="opacity:1;fill:#669900;fill-opacity:1;fill-rule:nonzero;stroke:none;stroke-width:0.79374999;stroke-linecap:round;stroke-linejoin:miter;stroke-miterlimit:4;stroke-dasharray:none;stroke-dashoffset:0;stroke-opacity:1;paint-order:markers stroke fill"
       d="m 72.812537,80.103198 a 4.2333873,4.2332928 0 0 0 -4.233333,4.233429 4.2333873,4.2332928 0 0 0 4.233333,4.233238 4.2333873,4.2332928 0 0 0 4.233333,-4.233238 4.2333873,4.2332928 0 0 0 -4.233333,-4.233429 z m 2.097918,2.474913 a 0.4848536,0.48484278 0 0 1 0.328569,0.84233 l -3.126425,2.94967 -1.726361,-1.628985 a 0.48509543,0.4850846 0 1 1 0.665661,-0.705792 l 1.0607,1.001403 2.460765,-2.321142 a 0.4848536,0.48484278 0 0 1 0.337091,-0.137484 z"
       id="path815" />
  </g>
</svg>
