<?xml version="1.0" encoding="UTF-8" standalone="no"?>
<svg
   xmlns:dc="http://purl.org/dc/elements/1.1/"
   xmlns:cc="http://creativecommons.org/ns#"
   xmlns:rdf="http://www.w3.org/1999/02/22-rdf-syntax-ns#"
   xmlns:svg="http://www.w3.org/2000/svg"
   xmlns="http://www.w3.org/2000/svg"
   id="svg987"
   version="1.1"
   viewBox="0 0 8.4666661 8.466667"
   height="8.4666672mm"
   width="8.4666662mm">
  <defs
     id="defs981" />
  <metadata
     id="metadata984">
    <rdf:RDF>
      <cc:Work
         rdf:about="">
        <dc:format>image/svg+xml</dc:format>
        <dc:type
           rdf:resource="http://purl.org/dc/dcmitype/StillImage" />
        <dc:title></dc:title>
      </cc:Work>
    </rdf:RDF>
  </metadata>
  <g
     transform="translate(-68.579204,-80.103198)"
     id="layer1">
    <g
       style="stroke-width:2.72875977"
       id="g869"
       transform="matrix(0.36646685,0,0,0.36646685,56.59751,29.54295)">
      <path
         id="circle838"
         transform="scale(0.26458333)"
         d="m 167.23242,521.44922 a 43.660712,43.660712 0 0 0 -43.66015,43.66016 43.660712,43.660712 0 0 0 43.66015,43.66015 43.660712,43.660712 0 0 0 43.66016,-43.66015 43.660712,43.660712 0 0 0 -43.66016,-43.66016 z m -17.66601,20.99805 a 5.0004998,5.0004998 0 0 1 3.58789,1.51367 l 14.07617,14.07812 14.07812,-14.07812 a 5.0004997,5.0004997 0 0 1 3.43946,-1.51367 5.0004997,5.0004997 0 0 1 3.63281,8.58398 l -14.07813,14.07813 14.07813,14.07812 a 5.0005487,5.0005487 0 1 1 -7.07227,7.07031 l -14.07812,-14.07812 -14.07617,14.07812 a 5.0005473,5.0005473 0 1 1 -7.07227,-7.07031 l 14.07813,-14.07812 -14.07813,-14.07813 a 5.0004998,5.0004998 0 0 1 3.48438,-8.58398 z"
         style="opacity:1;fill:#cc0000;fill-opacity:1;fill-rule:nonzero;stroke:none;stroke-width:8.1862793;stroke-linecap:round;stroke-linejoin:miter;stroke-miterlimit:4;stroke-dasharray:none;stroke-dashoffset:0;stroke-opacity:1;paint-order:markers stroke fill" />
      <g
         style="stroke-width:2.72875977"
         id="g863"
         transform="translate(0.67242162,-0.79788264)" />
    </g>
  </g>
</svg>
