<?xml version="1.0" encoding="UTF-8" standalone="no"?>
<svg
   xmlns:dc="http://purl.org/dc/elements/1.1/"
   xmlns:cc="http://creativecommons.org/ns#"
   xmlns:rdf="http://www.w3.org/1999/02/22-rdf-syntax-ns#"
   xmlns:svg="http://www.w3.org/2000/svg"
   xmlns="http://www.w3.org/2000/svg"
   id="svg987"
   version="1.1"
   viewBox="0 0 8.4666661 8.466667"
   height="32.000004"
   width="31.999998">
  <defs
     id="defs981" />
  <metadata
     id="metadata984">
    <rdf:RDF>
      <cc:Work
         rdf:about="">
        <dc:format>image/svg+xml</dc:format>
        <dc:type
           rdf:resource="http://purl.org/dc/dcmitype/StillImage" />
        <dc:title></dc:title>
      </cc:Work>
    </rdf:RDF>
  </metadata>
  <g
     transform="translate(-68.579204,-80.103198)"
     id="layer1">
    <path
       id="path1763"
       d="m 72.812537,80.103012 c -2.338066,3e-5 -4.233407,1.895456 -4.233332,4.233522 3e-5,2.337992 1.895339,4.233302 4.233332,4.233331 2.337993,-2.9e-5 4.233304,-1.895339 4.233334,-4.233331 7.4e-5,-2.338067 -1.895266,-4.233492 -4.233334,-4.233522 z m -2e-6,1.189348 c 0.221589,0 0.402018,0.0613 0.540852,0.184118 0.138822,0.12282 0.208094,0.280533 0.208094,0.472762 0,0.192245 -0.06925,0.349471 -0.208094,0.472286 -0.138822,0.122821 -0.319253,0.184118 -0.540852,0.184118 -0.221588,0 -0.402014,-0.0613 -0.540846,-0.184118 -0.138848,-0.12282 -0.208094,-0.280054 -0.208094,-0.472286 0,-0.192219 0.06927,-0.349952 0.208094,-0.472762 0.138822,-0.122821 0.319248,-0.184118 0.540846,-0.184118 z m -0.66887,1.774065 h 1.353563 v 4.333031 h -1.353563 z"
       style="opacity:1;fill:#3366cc;fill-opacity:1;fill-rule:nonzero;stroke:none;stroke-width:0.79374999;stroke-linecap:round;stroke-linejoin:miter;stroke-miterlimit:4;stroke-dasharray:none;stroke-dashoffset:0;stroke-opacity:1;paint-order:markers stroke fill" />
  </g>
</svg>
